<?xml version="1.0" encoding="utf-8"?>
<!-- Svg Vector Icons : http://www.onlinewebfonts.com/icon -->
<!DOCTYPE svg PUBLIC "-//W3C//DTD SVG 1.1//EN" "http://www.w3.org/Graphics/SVG/1.1/DTD/svg11.dtd">
<svg version="1.1" xmlns="http://www.w3.org/2000/svg" xmlns:xlink="http://www.w3.org/1999/xlink" x="0px" y="0px" viewBox="0 0 1000 1000" enable-background="new 0 0 1000 1000" xml:space="preserve">
<metadata> Svg Vector Icons : http://www.onlinewebfonts.com/icon </metadata>
<g><g transform="translate(0.000000,201.000000) scale(0.100000,-0.100000)"><path d="M353.1,918C84.4,787.6,100.2,1020.8,100.2-2958.4c0-4006.8-15.8-3777.6,276.6-3931.7c130.4-67.2,288.5-71.1,2675.2-71.1c2019.2,0,2540.8,11.9,2540.8,51.4c0,27.7-43.5,260.8-94.8,521.6c-55.3,260.8-106.7,600.6-122.5,754.7l-27.7,280.6l-675.7,23.7c-659.9,23.7-1371.2,118.5-1841.4,248.9c-411,110.7-656,185.7-802.2,241.1l-142.2,55.3l59.3,177.8c31.6,94.9,71.1,173.9,90.9,173.9c15.8,0,94.8-27.7,177.8-63.2c276.6-114.6,1205.2-331.9,1671.5-387.3c450.5-59.3,912.8-83,1272.4-71.1l181.8,7.9l63.2,525.5c39.5,284.5,79,561.1,94.8,612.5l23.7,87h-818h-821.9l23.7,466.3c63.2,1142,486,2410.4,1252.7,3742.1c134.3,241,256.8,446.5,264.8,466.3c7.9,15.8-1098.5,27.7-2465.8,27.7C827.2,981.2,459.8,969.4,353.1,918z M2984.8-895.7v-493.9h-217.3h-217.3v466.3c0,256.8,11.8,482.1,27.7,493.9c11.9,15.8,110.6,27.7,217.3,27.7h189.7V-895.7z"/><path d="M5881.2,894.3c-221.3-248.9-699.4-1098.5-972.1-1730.7c-328-754.7-557.2-1580.6-608.5-2193.1l-23.7-296.4h881.2c790.3,0,877.2-7.9,853.5-63.2c-122.5-316.1-328-1477.9-272.6-1533.2c7.9-3.9,185.7,11.9,395.1,43.5c470.2,63.2,1086.7,209.4,1454.1,343.8c150.2,55.3,288.5,86.9,300.3,71.1c51.4-59.3,114.6-300.3,86.9-328c-110.7-94.9-1149.9-367.5-1734.7-450.5c-237.1-35.6-450.5-71.1-474.2-75.1c-83-27.6,114.6-1284.2,245-1529.2l59.3-114.6h1707.1c1580.6,0,1718.9,3.9,1845.3,71.1c292.4,154.1,276.6-75.1,276.6,3931.7c0,3315.3-3.9,3599.8-67.1,3706.5c-138.3,233.1-150.2,233.1-2094.3,233.1H5960.2L5881.2,894.3z M6936.2-895.7v-493.9h-197.6h-197.6v493.9v493.9h197.6h197.6V-895.7z"/></g></g>
</svg>